<svg xmlns="http://www.w3.org/2000/svg" xmlns:xlink="http://www.w3.org/1999/xlink" xmlns:s="https://github.com/nturley/netlistsvg" width="1295" height="757">
  <style>svg {
    stroke:#000;
    fill:none;
  }
  text {
    fill:#000;
    stroke:none;
    font-size:10px;
    font-weight: bold;
    font-family: "Courier New", monospace;
  }
  .nodelabel {
    text-anchor: middle;
  }
  .inputPortLabel {
    text-anchor: end;
  }
  .splitjoinBody {
    fill:#000;
  }</style>
  <g s:type="generic" transform="translate(317,504.5)" s:width="30" s:height="40" id="cell_$abc$231$auto$blifparse.cc:386:parse_blif$232">
    <text x="15" y="-4" class="nodelabel cell_$abc$231$auto$blifparse.cc:386:parse_blif$232" s:attribute="ref">sky130_fd_sc_hd__clkinv_1</text>
    <rect width="30" height="20" s:generic="body" class="cell_$abc$231$auto$blifparse.cc:386:parse_blif$232"/>
    <g transform="translate(0,10)" s:x="0" s:y="10" s:pid="in0" id="port_$abc$231$auto$blifparse.cc:386:parse_blif$232~A">
      <text x="-3" y="-4" class="inputPortLabel cell_$abc$231$auto$blifparse.cc:386:parse_blif$232">A</text>
    </g>
    <g transform="translate(30,10)" s:x="30" s:y="10" s:pid="out0" id="port_$abc$231$auto$blifparse.cc:386:parse_blif$232~Y">
      <text x="5" y="-4" style="fill:#000; stroke:none" class="cell_$abc$231$auto$blifparse.cc:386:parse_blif$232">Y</text>
    </g>
  </g>
  <g s:type="generic" transform="translate(650,251)" s:width="30" s:height="40" id="cell_$abc$231$auto$blifparse.cc:386:parse_blif$233">
    <text x="15" y="-4" class="nodelabel cell_$abc$231$auto$blifparse.cc:386:parse_blif$233" s:attribute="ref">sky130_fd_sc_hd__nor4_1</text>
    <rect width="30" height="80" s:generic="body" class="cell_$abc$231$auto$blifparse.cc:386:parse_blif$233"/>
    <g transform="translate(0,10)" s:x="0" s:y="10" s:pid="in0" id="port_$abc$231$auto$blifparse.cc:386:parse_blif$233~A">
      <text x="-3" y="-4" class="inputPortLabel cell_$abc$231$auto$blifparse.cc:386:parse_blif$233">A</text>
    </g>
    <g transform="translate(0,30)" s:x="0" s:y="10" s:pid="in0" id="port_$abc$231$auto$blifparse.cc:386:parse_blif$233~B">
      <text x="-3" y="-4" class="inputPortLabel cell_$abc$231$auto$blifparse.cc:386:parse_blif$233">B</text>
    </g>
    <g transform="translate(0,50)" s:x="0" s:y="10" s:pid="in0" id="port_$abc$231$auto$blifparse.cc:386:parse_blif$233~C">
      <text x="-3" y="-4" class="inputPortLabel cell_$abc$231$auto$blifparse.cc:386:parse_blif$233">C</text>
    </g>
    <g transform="translate(0,70)" s:x="0" s:y="10" s:pid="in0" id="port_$abc$231$auto$blifparse.cc:386:parse_blif$233~D">
      <text x="-3" y="-4" class="inputPortLabel cell_$abc$231$auto$blifparse.cc:386:parse_blif$233">D</text>
    </g>
    <g transform="translate(30,10)" s:x="30" s:y="10" s:pid="out0" id="port_$abc$231$auto$blifparse.cc:386:parse_blif$233~Y">
      <text x="5" y="-4" style="fill:#000; stroke:none" class="cell_$abc$231$auto$blifparse.cc:386:parse_blif$233">Y</text>
    </g>
  </g>
  <g s:type="generic" transform="translate(650,55)" s:width="30" s:height="40" id="cell_$abc$231$auto$blifparse.cc:386:parse_blif$234">
    <text x="15" y="-4" class="nodelabel cell_$abc$231$auto$blifparse.cc:386:parse_blif$234" s:attribute="ref">sky130_fd_sc_hd__o21a_1</text>
    <rect width="30" height="60" s:generic="body" class="cell_$abc$231$auto$blifparse.cc:386:parse_blif$234"/>
    <g transform="translate(0,10)" s:x="0" s:y="10" s:pid="in0" id="port_$abc$231$auto$blifparse.cc:386:parse_blif$234~A1">
      <text x="-3" y="-4" class="inputPortLabel cell_$abc$231$auto$blifparse.cc:386:parse_blif$234">A1</text>
    </g>
    <g transform="translate(0,30)" s:x="0" s:y="10" s:pid="in0" id="port_$abc$231$auto$blifparse.cc:386:parse_blif$234~A2">
      <text x="-3" y="-4" class="inputPortLabel cell_$abc$231$auto$blifparse.cc:386:parse_blif$234">A2</text>
    </g>
    <g transform="translate(0,50)" s:x="0" s:y="10" s:pid="in0" id="port_$abc$231$auto$blifparse.cc:386:parse_blif$234~B1">
      <text x="-3" y="-4" class="inputPortLabel cell_$abc$231$auto$blifparse.cc:386:parse_blif$234">B1</text>
    </g>
    <g transform="translate(30,10)" s:x="30" s:y="10" s:pid="out0" id="port_$abc$231$auto$blifparse.cc:386:parse_blif$234~X">
      <text x="5" y="-4" style="fill:#000; stroke:none" class="cell_$abc$231$auto$blifparse.cc:386:parse_blif$234">X</text>
    </g>
  </g>
  <g s:type="generic" transform="translate(650,379)" s:width="30" s:height="40" id="cell_$abc$231$auto$blifparse.cc:386:parse_blif$235">
    <text x="15" y="-4" class="nodelabel cell_$abc$231$auto$blifparse.cc:386:parse_blif$235" s:attribute="ref">sky130_fd_sc_hd__nor2_1</text>
    <rect width="30" height="40" s:generic="body" class="cell_$abc$231$auto$blifparse.cc:386:parse_blif$235"/>
    <g transform="translate(0,10)" s:x="0" s:y="10" s:pid="in0" id="port_$abc$231$auto$blifparse.cc:386:parse_blif$235~A">
      <text x="-3" y="-4" class="inputPortLabel cell_$abc$231$auto$blifparse.cc:386:parse_blif$235">A</text>
    </g>
    <g transform="translate(0,30)" s:x="0" s:y="10" s:pid="in0" id="port_$abc$231$auto$blifparse.cc:386:parse_blif$235~B">
      <text x="-3" y="-4" class="inputPortLabel cell_$abc$231$auto$blifparse.cc:386:parse_blif$235">B</text>
    </g>
    <g transform="translate(30,10)" s:x="30" s:y="10" s:pid="out0" id="port_$abc$231$auto$blifparse.cc:386:parse_blif$235~Y">
      <text x="5" y="-4" style="fill:#000; stroke:none" class="cell_$abc$231$auto$blifparse.cc:386:parse_blif$235">Y</text>
    </g>
  </g>
  <g s:type="generic" transform="translate(993,319)" s:width="30" s:height="40" id="cell_$abc$231$auto$blifparse.cc:386:parse_blif$236">
    <text x="15" y="-4" class="nodelabel cell_$abc$231$auto$blifparse.cc:386:parse_blif$236" s:attribute="ref">sky130_fd_sc_hd__a211oi_1</text>
    <rect width="30" height="80" s:generic="body" class="cell_$abc$231$auto$blifparse.cc:386:parse_blif$236"/>
    <g transform="translate(0,10)" s:x="0" s:y="10" s:pid="in0" id="port_$abc$231$auto$blifparse.cc:386:parse_blif$236~A1">
      <text x="-3" y="-4" class="inputPortLabel cell_$abc$231$auto$blifparse.cc:386:parse_blif$236">A1</text>
    </g>
    <g transform="translate(0,30)" s:x="0" s:y="10" s:pid="in0" id="port_$abc$231$auto$blifparse.cc:386:parse_blif$236~A2">
      <text x="-3" y="-4" class="inputPortLabel cell_$abc$231$auto$blifparse.cc:386:parse_blif$236">A2</text>
    </g>
    <g transform="translate(0,50)" s:x="0" s:y="10" s:pid="in0" id="port_$abc$231$auto$blifparse.cc:386:parse_blif$236~B1">
      <text x="-3" y="-4" class="inputPortLabel cell_$abc$231$auto$blifparse.cc:386:parse_blif$236">B1</text>
    </g>
    <g transform="translate(0,70)" s:x="0" s:y="10" s:pid="in0" id="port_$abc$231$auto$blifparse.cc:386:parse_blif$236~C1">
      <text x="-3" y="-4" class="inputPortLabel cell_$abc$231$auto$blifparse.cc:386:parse_blif$236">C1</text>
    </g>
    <g transform="translate(30,10)" s:x="30" s:y="10" s:pid="out0" id="port_$abc$231$auto$blifparse.cc:386:parse_blif$236~Y">
      <text x="5" y="-4" style="fill:#000; stroke:none" class="cell_$abc$231$auto$blifparse.cc:386:parse_blif$236">Y</text>
    </g>
  </g>
  <g s:type="generic" transform="translate(650,163)" s:width="30" s:height="40" id="cell_$abc$231$auto$blifparse.cc:386:parse_blif$237">
    <text x="15" y="-4" class="nodelabel cell_$abc$231$auto$blifparse.cc:386:parse_blif$237" s:attribute="ref">sky130_fd_sc_hd__xnor2_1</text>
    <rect width="30" height="40" s:generic="body" class="cell_$abc$231$auto$blifparse.cc:386:parse_blif$237"/>
    <g transform="translate(0,10)" s:x="0" s:y="10" s:pid="in0" id="port_$abc$231$auto$blifparse.cc:386:parse_blif$237~A">
      <text x="-3" y="-4" class="inputPortLabel cell_$abc$231$auto$blifparse.cc:386:parse_blif$237">A</text>
    </g>
    <g transform="translate(0,30)" s:x="0" s:y="10" s:pid="in0" id="port_$abc$231$auto$blifparse.cc:386:parse_blif$237~B">
      <text x="-3" y="-4" class="inputPortLabel cell_$abc$231$auto$blifparse.cc:386:parse_blif$237">B</text>
    </g>
    <g transform="translate(30,10)" s:x="30" s:y="10" s:pid="out0" id="port_$abc$231$auto$blifparse.cc:386:parse_blif$237~Y">
      <text x="5" y="-4" style="fill:#000; stroke:none" class="cell_$abc$231$auto$blifparse.cc:386:parse_blif$237">Y</text>
    </g>
  </g>
  <g s:type="generic" transform="translate(993,512)" s:width="30" s:height="40" id="cell_$abc$231$auto$blifparse.cc:386:parse_blif$238">
    <text x="15" y="-4" class="nodelabel cell_$abc$231$auto$blifparse.cc:386:parse_blif$238" s:attribute="ref">sky130_fd_sc_hd__a211oi_1</text>
    <rect width="30" height="80" s:generic="body" class="cell_$abc$231$auto$blifparse.cc:386:parse_blif$238"/>
    <g transform="translate(0,10)" s:x="0" s:y="10" s:pid="in0" id="port_$abc$231$auto$blifparse.cc:386:parse_blif$238~A1">
      <text x="-3" y="-4" class="inputPortLabel cell_$abc$231$auto$blifparse.cc:386:parse_blif$238">A1</text>
    </g>
    <g transform="translate(0,30)" s:x="0" s:y="10" s:pid="in0" id="port_$abc$231$auto$blifparse.cc:386:parse_blif$238~A2">
      <text x="-3" y="-4" class="inputPortLabel cell_$abc$231$auto$blifparse.cc:386:parse_blif$238">A2</text>
    </g>
    <g transform="translate(0,50)" s:x="0" s:y="10" s:pid="in0" id="port_$abc$231$auto$blifparse.cc:386:parse_blif$238~B1">
      <text x="-3" y="-4" class="inputPortLabel cell_$abc$231$auto$blifparse.cc:386:parse_blif$238">B1</text>
    </g>
    <g transform="translate(0,70)" s:x="0" s:y="10" s:pid="in0" id="port_$abc$231$auto$blifparse.cc:386:parse_blif$238~C1">
      <text x="-3" y="-4" class="inputPortLabel cell_$abc$231$auto$blifparse.cc:386:parse_blif$238">C1</text>
    </g>
    <g transform="translate(30,10)" s:x="30" s:y="10" s:pid="out0" id="port_$abc$231$auto$blifparse.cc:386:parse_blif$238~Y">
      <text x="5" y="-4" style="fill:#000; stroke:none" class="cell_$abc$231$auto$blifparse.cc:386:parse_blif$238">Y</text>
    </g>
  </g>
  <g s:type="generic" transform="translate(993,640)" s:width="30" s:height="40" id="cell_$abc$231$auto$blifparse.cc:386:parse_blif$239">
    <text x="15" y="-4" class="nodelabel cell_$abc$231$auto$blifparse.cc:386:parse_blif$239" s:attribute="ref">sky130_fd_sc_hd__and4_1</text>
    <rect width="30" height="80" s:generic="body" class="cell_$abc$231$auto$blifparse.cc:386:parse_blif$239"/>
    <g transform="translate(0,10)" s:x="0" s:y="10" s:pid="in0" id="port_$abc$231$auto$blifparse.cc:386:parse_blif$239~A">
      <text x="-3" y="-4" class="inputPortLabel cell_$abc$231$auto$blifparse.cc:386:parse_blif$239">A</text>
    </g>
    <g transform="translate(0,30)" s:x="0" s:y="10" s:pid="in0" id="port_$abc$231$auto$blifparse.cc:386:parse_blif$239~B">
      <text x="-3" y="-4" class="inputPortLabel cell_$abc$231$auto$blifparse.cc:386:parse_blif$239">B</text>
    </g>
    <g transform="translate(0,50)" s:x="0" s:y="10" s:pid="in0" id="port_$abc$231$auto$blifparse.cc:386:parse_blif$239~C">
      <text x="-3" y="-4" class="inputPortLabel cell_$abc$231$auto$blifparse.cc:386:parse_blif$239">C</text>
    </g>
    <g transform="translate(0,70)" s:x="0" s:y="10" s:pid="in0" id="port_$abc$231$auto$blifparse.cc:386:parse_blif$239~D">
      <text x="-3" y="-4" class="inputPortLabel cell_$abc$231$auto$blifparse.cc:386:parse_blif$239">D</text>
    </g>
    <g transform="translate(30,10)" s:x="30" s:y="10" s:pid="out0" id="port_$abc$231$auto$blifparse.cc:386:parse_blif$239~X">
      <text x="5" y="-4" style="fill:#000; stroke:none" class="cell_$abc$231$auto$blifparse.cc:386:parse_blif$239">X</text>
    </g>
  </g>
  <g s:type="generic" transform="translate(433.5,32.5)" s:width="30" s:height="40" id="cell_$auto$ff.cc:266:slice$183">
    <text x="15" y="-4" class="nodelabel cell_$auto$ff.cc:266:slice$183" s:attribute="ref">sky130_fd_sc_hd__dfrtp_1</text>
    <rect width="30" height="60" s:generic="body" class="cell_$auto$ff.cc:266:slice$183"/>
    <g transform="translate(0,10)" s:x="0" s:y="10" s:pid="in0" id="port_$auto$ff.cc:266:slice$183~CLK">
      <text x="-3" y="-4" class="inputPortLabel cell_$auto$ff.cc:266:slice$183">CLK</text>
    </g>
    <g transform="translate(0,30)" s:x="0" s:y="10" s:pid="in0" id="port_$auto$ff.cc:266:slice$183~D">
      <text x="-3" y="-4" class="inputPortLabel cell_$auto$ff.cc:266:slice$183">D</text>
    </g>
    <g transform="translate(0,50)" s:x="0" s:y="10" s:pid="in0" id="port_$auto$ff.cc:266:slice$183~RESET_B">
      <text x="-3" y="-4" class="inputPortLabel cell_$auto$ff.cc:266:slice$183">RESET_B</text>
    </g>
    <g transform="translate(30,10)" s:x="30" s:y="10" s:pid="out0" id="port_$auto$ff.cc:266:slice$183~Q">
      <text x="5" y="-4" style="fill:#000; stroke:none" class="cell_$auto$ff.cc:266:slice$183">Q</text>
    </g>
  </g>
  <g s:type="generic" transform="translate(433.5,291)" s:width="30" s:height="40" id="cell_$auto$ff.cc:266:slice$184">
    <text x="15" y="-4" class="nodelabel cell_$auto$ff.cc:266:slice$184" s:attribute="ref">sky130_fd_sc_hd__dfrtp_1</text>
    <rect width="30" height="60" s:generic="body" class="cell_$auto$ff.cc:266:slice$184"/>
    <g transform="translate(0,10)" s:x="0" s:y="10" s:pid="in0" id="port_$auto$ff.cc:266:slice$184~CLK">
      <text x="-3" y="-4" class="inputPortLabel cell_$auto$ff.cc:266:slice$184">CLK</text>
    </g>
    <g transform="translate(0,30)" s:x="0" s:y="10" s:pid="in0" id="port_$auto$ff.cc:266:slice$184~D">
      <text x="-3" y="-4" class="inputPortLabel cell_$auto$ff.cc:266:slice$184">D</text>
    </g>
    <g transform="translate(0,50)" s:x="0" s:y="10" s:pid="in0" id="port_$auto$ff.cc:266:slice$184~RESET_B">
      <text x="-3" y="-4" class="inputPortLabel cell_$auto$ff.cc:266:slice$184">RESET_B</text>
    </g>
    <g transform="translate(30,10)" s:x="30" s:y="10" s:pid="out0" id="port_$auto$ff.cc:266:slice$184~Q">
      <text x="5" y="-4" style="fill:#000; stroke:none" class="cell_$auto$ff.cc:266:slice$184">Q</text>
    </g>
  </g>
  <g s:type="generic" transform="translate(125,504.5)" s:width="30" s:height="40" id="cell_$auto$ff.cc:266:slice$185">
    <text x="15" y="-4" class="nodelabel cell_$auto$ff.cc:266:slice$185" s:attribute="ref">sky130_fd_sc_hd__dfrtp_1</text>
    <rect width="30" height="60" s:generic="body" class="cell_$auto$ff.cc:266:slice$185"/>
    <g transform="translate(0,10)" s:x="0" s:y="10" s:pid="in0" id="port_$auto$ff.cc:266:slice$185~CLK">
      <text x="-3" y="-4" class="inputPortLabel cell_$auto$ff.cc:266:slice$185">CLK</text>
    </g>
    <g transform="translate(0,30)" s:x="0" s:y="10" s:pid="in0" id="port_$auto$ff.cc:266:slice$185~D">
      <text x="-3" y="-4" class="inputPortLabel cell_$auto$ff.cc:266:slice$185">D</text>
    </g>
    <g transform="translate(0,50)" s:x="0" s:y="10" s:pid="in0" id="port_$auto$ff.cc:266:slice$185~RESET_B">
      <text x="-3" y="-4" class="inputPortLabel cell_$auto$ff.cc:266:slice$185">RESET_B</text>
    </g>
    <g transform="translate(30,10)" s:x="30" s:y="10" s:pid="out0" id="port_$auto$ff.cc:266:slice$185~Q">
      <text x="5" y="-4" style="fill:#000; stroke:none" class="cell_$auto$ff.cc:266:slice$185">Q</text>
    </g>
  </g>
  <g s:type="inputExt" transform="translate(12,266.5)" s:width="30" s:height="20" id="cell_clk">
    <text x="15" y="-4" class="nodelabel cell_clk" s:attribute="ref">clk</text>
    <s:alias val="$_inputExt_"/>
    <path d="M0,0 L0,20 L15,20 L30,10 L15,0 Z" class="cell_clk"/>
    <g s:x="28" s:y="10" s:pid="Y"/>
  </g>
  <g s:type="inputExt" transform="translate(12,331.5)" s:width="30" s:height="20" id="cell_rst_n">
    <text x="15" y="-4" class="nodelabel cell_rst_n" s:attribute="ref">rst_n</text>
    <s:alias val="$_inputExt_"/>
    <path d="M0,0 L0,20 L15,20 L30,10 L15,0 Z" class="cell_rst_n"/>
    <g s:x="28" s:y="10" s:pid="Y"/>
  </g>
  <g s:type="inputExt" transform="translate(317,572.5)" s:width="30" s:height="20" id="cell_in">
    <text x="15" y="-4" class="nodelabel cell_in" s:attribute="ref">in</text>
    <s:alias val="$_inputExt_"/>
    <path d="M0,0 L0,20 L15,20 L30,10 L15,0 Z" class="cell_in"/>
    <g s:x="28" s:y="10" s:pid="Y"/>
  </g>
  <g s:type="outputExt" transform="translate(993,447)" s:width="30" s:height="20" id="cell_out">
    <text x="15" y="-4" class="nodelabel cell_out" s:attribute="ref">out</text>
    <s:alias val="$_outputExt_"/>
    <path d="M30,0 L30,20 L15,20 L0,10 L15,0 Z" class="cell_out"/>
    <g s:x="0" s:y="10" s:pid="A"/>
  </g>
  <line x1="156" x2="317" y1="515" y2="515" class="net_6"/>
  <line x1="156" x2="285" y1="515" y2="515" class="net_6"/>
  <line x1="285" x2="285" y1="515" y2="105.5" class="net_6"/>
  <circle cx="285" cy="515" r="2" style="fill:#000" class="net_6"/>
  <line x1="285" x2="650" y1="105.5" y2="105.5" class="net_6"/>
  <line x1="348" x2="617" y1="515" y2="515" class="net_7"/>
  <line x1="617" x2="617" y1="515" y2="261.5" class="net_7"/>
  <circle cx="617" cy="515" r="2" style="fill:#000" class="net_7"/>
  <line x1="617" x2="650" y1="261.5" y2="261.5" class="net_7"/>
  <line x1="348" x2="960" y1="515" y2="515" class="net_7"/>
  <line x1="960" x2="960" y1="515" y2="522.5" class="net_7"/>
  <line x1="960" x2="993" y1="522.5" y2="522.5" class="net_7"/>
  <line x1="348" x2="617" y1="515" y2="515" class="net_7"/>
  <line x1="617" x2="617" y1="515" y2="650.5" class="net_7"/>
  <line x1="617" x2="993" y1="650.5" y2="650.5" class="net_7"/>
  <line x1="464.5" x2="597" y1="43" y2="43" class="net_8"/>
  <line x1="597" x2="597" y1="43" y2="281.5" class="net_8"/>
  <circle cx="597" cy="43" r="2" style="fill:#000" class="net_8"/>
  <circle cx="597" cy="281.5" r="2" style="fill:#000" class="net_8"/>
  <line x1="597" x2="650" y1="281.5" y2="281.5" class="net_8"/>
  <line x1="464.5" x2="597" y1="43" y2="43" class="net_8"/>
  <line x1="597" x2="597" y1="43" y2="65.5" class="net_8"/>
  <circle cx="597" cy="65.5" r="2" style="fill:#000" class="net_8"/>
  <line x1="597" x2="650" y1="65.5" y2="65.5" class="net_8"/>
  <line x1="464.5" x2="597" y1="43" y2="43" class="net_8"/>
  <line x1="597" x2="597" y1="43" y2="23" class="net_8"/>
  <line x1="597" x2="970" y1="23" y2="23" class="net_8"/>
  <line x1="970" x2="970" y1="23" y2="329.5" class="net_8"/>
  <line x1="970" x2="993" y1="329.5" y2="329.5" class="net_8"/>
  <line x1="464.5" x2="597" y1="43" y2="43" class="net_8"/>
  <line x1="597" x2="597" y1="43" y2="173.5" class="net_8"/>
  <circle cx="597" cy="173.5" r="2" style="fill:#000" class="net_8"/>
  <line x1="597" x2="650" y1="173.5" y2="173.5" class="net_8"/>
  <line x1="464.5" x2="597" y1="43" y2="43" class="net_8"/>
  <line x1="597" x2="597" y1="43" y2="670.5" class="net_8"/>
  <line x1="597" x2="993" y1="670.5" y2="670.5" class="net_8"/>
  <line x1="464.5" x2="650" y1="301.5" y2="301.5" class="net_9"/>
  <line x1="464.5" x2="607" y1="301.5" y2="301.5" class="net_9"/>
  <line x1="607" x2="607" y1="301.5" y2="85.5" class="net_9"/>
  <circle cx="607" cy="301.5" r="2" style="fill:#000" class="net_9"/>
  <circle cx="607" cy="85.5" r="2" style="fill:#000" class="net_9"/>
  <line x1="607" x2="650" y1="85.5" y2="85.5" class="net_9"/>
  <line x1="464.5" x2="607" y1="301.5" y2="301.5" class="net_9"/>
  <line x1="607" x2="607" y1="301.5" y2="389.5" class="net_9"/>
  <circle cx="607" cy="389.5" r="2" style="fill:#000" class="net_9"/>
  <line x1="607" x2="650" y1="389.5" y2="389.5" class="net_9"/>
  <line x1="464.5" x2="607" y1="301.5" y2="301.5" class="net_9"/>
  <line x1="607" x2="607" y1="301.5" y2="34" class="net_9"/>
  <line x1="607" x2="960" y1="34" y2="34" class="net_9"/>
  <line x1="960" x2="960" y1="34" y2="349.5" class="net_9"/>
  <line x1="960" x2="993" y1="349.5" y2="349.5" class="net_9"/>
  <line x1="464.5" x2="607" y1="301.5" y2="301.5" class="net_9"/>
  <line x1="607" x2="607" y1="301.5" y2="193.5" class="net_9"/>
  <circle cx="607" cy="193.5" r="2" style="fill:#000" class="net_9"/>
  <line x1="607" x2="650" y1="193.5" y2="193.5" class="net_9"/>
  <line x1="464.5" x2="607" y1="301.5" y2="301.5" class="net_9"/>
  <line x1="607" x2="607" y1="301.5" y2="690.5" class="net_9"/>
  <line x1="607" x2="993" y1="690.5" y2="690.5" class="net_9"/>
  <line x1="345" x2="627" y1="582.5" y2="582.5" class="net_4"/>
  <line x1="627" x2="627" y1="582.5" y2="321.5" class="net_4"/>
  <circle cx="627" cy="582.5" r="2" style="fill:#000" class="net_4"/>
  <line x1="627" x2="650" y1="321.5" y2="321.5" class="net_4"/>
  <line x1="345" x2="627" y1="582.5" y2="582.5" class="net_4"/>
  <line x1="627" x2="627" y1="582.5" y2="409.5" class="net_4"/>
  <circle cx="627" cy="409.5" r="2" style="fill:#000" class="net_4"/>
  <line x1="627" x2="650" y1="409.5" y2="409.5" class="net_4"/>
  <line x1="345" x2="993" y1="582.5" y2="582.5" class="net_4"/>
  <line x1="345" x2="627" y1="582.5" y2="582.5" class="net_4"/>
  <line x1="627" x2="627" y1="582.5" y2="710.5" class="net_4"/>
  <line x1="627" x2="993" y1="710.5" y2="710.5" class="net_4"/>
  <line x1="681" x2="950" y1="65.5" y2="65.5" class="net_10"/>
  <line x1="950" x2="950" y1="65.5" y2="369.5" class="net_10"/>
  <circle cx="950" cy="369.5" r="2" style="fill:#000" class="net_10"/>
  <line x1="950" x2="993" y1="369.5" y2="369.5" class="net_10"/>
  <line x1="681" x2="950" y1="65.5" y2="65.5" class="net_10"/>
  <line x1="950" x2="950" y1="65.5" y2="562.5" class="net_10"/>
  <line x1="950" x2="993" y1="562.5" y2="562.5" class="net_10"/>
  <line x1="681" x2="993" y1="389.5" y2="389.5" class="net_11"/>
  <line x1="681" x2="930" y1="173.5" y2="173.5" class="net_13"/>
  <line x1="930" x2="930" y1="173.5" y2="542.5" class="net_13"/>
  <line x1="930" x2="993" y1="542.5" y2="542.5" class="net_13"/>
  <line x1="40" x2="72" y1="276.5" y2="276.5" class="net_2"/>
  <line x1="72" x2="72" y1="276.5" y2="43" class="net_2"/>
  <circle cx="72" cy="276.5" r="2" style="fill:#000" class="net_2"/>
  <line x1="72" x2="433.5" y1="43" y2="43" class="net_2"/>
  <line x1="40" x2="295" y1="276.5" y2="276.5" class="net_2"/>
  <line x1="295" x2="295" y1="276.5" y2="301.5" class="net_2"/>
  <line x1="295" x2="433.5" y1="301.5" y2="301.5" class="net_2"/>
  <line x1="40" x2="72" y1="276.5" y2="276.5" class="net_2"/>
  <line x1="72" x2="72" y1="276.5" y2="515" class="net_2"/>
  <line x1="72" x2="125" y1="515" y2="515" class="net_2"/>
  <line x1="1024" x2="1273" y1="329.5" y2="329.5" class="net_12"/>
  <line x1="1273" x2="1273" y1="329.5" y2="12" class="net_12"/>
  <line x1="1273" x2="295" y1="12" y2="12" class="net_12"/>
  <line x1="295" x2="295" y1="12" y2="63" class="net_12"/>
  <line x1="295" x2="433.5" y1="63" y2="63" class="net_12"/>
  <line x1="40" x2="62" y1="341.5" y2="341.5" class="net_3"/>
  <line x1="62" x2="62" y1="341.5" y2="83" class="net_3"/>
  <circle cx="62" cy="341.5" r="2" style="fill:#000" class="net_3"/>
  <line x1="62" x2="433.5" y1="83" y2="83" class="net_3"/>
  <line x1="40" x2="433.5" y1="341.5" y2="341.5" class="net_3"/>
  <line x1="40" x2="62" y1="341.5" y2="341.5" class="net_3"/>
  <line x1="62" x2="62" y1="341.5" y2="555" class="net_3"/>
  <line x1="62" x2="125" y1="555" y2="555" class="net_3"/>
  <line x1="1024" x2="1283" y1="522.5" y2="522.5" class="net_14"/>
  <line x1="1283" x2="1283" y1="522.5" y2="733" class="net_14"/>
  <line x1="1283" x2="295" y1="733" y2="733" class="net_14"/>
  <line x1="295" x2="295" y1="733" y2="321.5" class="net_14"/>
  <line x1="295" x2="433.5" y1="321.5" y2="321.5" class="net_14"/>
  <line x1="1024" x2="1273" y1="650.5" y2="650.5" class="net_15"/>
  <line x1="1273" x2="1273" y1="650.5" y2="744" class="net_15"/>
  <line x1="1273" x2="52" y1="744" y2="744" class="net_15"/>
  <line x1="52" x2="52" y1="744" y2="535" class="net_15"/>
  <line x1="52" x2="125" y1="535" y2="535" class="net_15"/>
  <line x1="681" x2="940" y1="261.5" y2="261.5" class="net_5"/>
  <line x1="940" x2="940" y1="261.5" y2="457" class="net_5"/>
  <line x1="940" x2="993" y1="457" y2="457" class="net_5"/>
</svg>
