<svg xmlns="http://www.w3.org/2000/svg" xmlns:xlink="http://www.w3.org/1999/xlink" xmlns:s="https://github.com/nturley/netlistsvg" width="959" height="219.5">
  <style>svg {
    stroke:#000;
    fill:none;
  }
  text {
    fill:#000;
    stroke:none;
    font-size:10px;
    font-weight: bold;
    font-family: "Courier New", monospace;
  }
  .nodelabel {
    text-anchor: middle;
  }
  .inputPortLabel {
    text-anchor: end;
  }
  .splitjoinBody {
    fill:#000;
  }</style>
  <g s:type="generic" transform="translate(84,97)" s:width="30" s:height="40" id="cell_$abc$137$auto$blifparse.cc:386:parse_blif$138">
    <text x="15" y="-4" class="nodelabel cell_$abc$137$auto$blifparse.cc:386:parse_blif$138" s:attribute="ref">sky130_fd_sc_hd__nor2_1</text>
    <rect width="30" height="40" s:generic="body" class="cell_$abc$137$auto$blifparse.cc:386:parse_blif$138"/>
    <g transform="translate(0,10)" s:x="0" s:y="10" s:pid="in0" id="port_$abc$137$auto$blifparse.cc:386:parse_blif$138~A">
      <text x="-3" y="-4" class="inputPortLabel cell_$abc$137$auto$blifparse.cc:386:parse_blif$138">A</text>
    </g>
    <g transform="translate(0,30)" s:x="0" s:y="10" s:pid="in0" id="port_$abc$137$auto$blifparse.cc:386:parse_blif$138~B">
      <text x="-3" y="-4" class="inputPortLabel cell_$abc$137$auto$blifparse.cc:386:parse_blif$138">B</text>
    </g>
    <g transform="translate(30,10)" s:x="30" s:y="10" s:pid="out0" id="port_$abc$137$auto$blifparse.cc:386:parse_blif$138~Y">
      <text x="5" y="-4" style="fill:#000; stroke:none" class="cell_$abc$137$auto$blifparse.cc:386:parse_blif$138">Y</text>
    </g>
  </g>
  <g s:type="generic" transform="translate(408,144.5)" s:width="30" s:height="40" id="cell_$abc$137$auto$blifparse.cc:386:parse_blif$139">
    <text x="15" y="-4" class="nodelabel cell_$abc$137$auto$blifparse.cc:386:parse_blif$139" s:attribute="ref">sky130_fd_sc_hd__nor3b_1</text>
    <rect width="30" height="60" s:generic="body" class="cell_$abc$137$auto$blifparse.cc:386:parse_blif$139"/>
    <g transform="translate(0,10)" s:x="0" s:y="10" s:pid="in0" id="port_$abc$137$auto$blifparse.cc:386:parse_blif$139~A">
      <text x="-3" y="-4" class="inputPortLabel cell_$abc$137$auto$blifparse.cc:386:parse_blif$139">A</text>
    </g>
    <g transform="translate(0,30)" s:x="0" s:y="10" s:pid="in0" id="port_$abc$137$auto$blifparse.cc:386:parse_blif$139~B">
      <text x="-3" y="-4" class="inputPortLabel cell_$abc$137$auto$blifparse.cc:386:parse_blif$139">B</text>
    </g>
    <g transform="translate(0,50)" s:x="0" s:y="10" s:pid="in0" id="port_$abc$137$auto$blifparse.cc:386:parse_blif$139~C_N">
      <text x="-3" y="-4" class="inputPortLabel cell_$abc$137$auto$blifparse.cc:386:parse_blif$139">C_N</text>
    </g>
    <g transform="translate(30,10)" s:x="30" s:y="10" s:pid="out0" id="port_$abc$137$auto$blifparse.cc:386:parse_blif$139~Y">
      <text x="5" y="-4" style="fill:#000; stroke:none" class="cell_$abc$137$auto$blifparse.cc:386:parse_blif$139">Y</text>
    </g>
  </g>
  <g s:type="generic" transform="translate(732,124.5)" s:width="30" s:height="40" id="cell_$auto$ff.cc:266:slice$121">
    <text x="15" y="-4" class="nodelabel cell_$auto$ff.cc:266:slice$121" s:attribute="ref">sky130_fd_sc_hd__dfxtp_1</text>
    <rect width="30" height="40" s:generic="body" class="cell_$auto$ff.cc:266:slice$121"/>
    <g transform="translate(0,10)" s:x="0" s:y="10" s:pid="in0" id="port_$auto$ff.cc:266:slice$121~CLK">
      <text x="-3" y="-4" class="inputPortLabel cell_$auto$ff.cc:266:slice$121">CLK</text>
    </g>
    <g transform="translate(0,30)" s:x="0" s:y="10" s:pid="in0" id="port_$auto$ff.cc:266:slice$121~D">
      <text x="-3" y="-4" class="inputPortLabel cell_$auto$ff.cc:266:slice$121">D</text>
    </g>
    <g transform="translate(30,10)" s:x="30" s:y="10" s:pid="out0" id="port_$auto$ff.cc:266:slice$121~Q">
      <text x="5" y="-4" style="fill:#000; stroke:none" class="cell_$auto$ff.cc:266:slice$121">Q</text>
    </g>
  </g>
  <g s:type="inputExt" transform="translate(408,79.5)" s:width="30" s:height="20" id="cell_clk">
    <text x="15" y="-4" class="nodelabel cell_clk" s:attribute="ref">clk</text>
    <s:alias val="$_inputExt_"/>
    <path d="M0,0 L0,20 L15,20 L30,10 L15,0 Z" class="cell_clk"/>
    <g s:x="28" s:y="10" s:pid="Y"/>
  </g>
  <g s:type="inputExt" transform="translate(84,185)" s:width="30" s:height="20" id="cell_rst_n">
    <text x="15" y="-4" class="nodelabel cell_rst_n" s:attribute="ref">rst_n</text>
    <s:alias val="$_inputExt_"/>
    <path d="M0,0 L0,20 L15,20 L30,10 L15,0 Z" class="cell_rst_n"/>
    <g s:x="28" s:y="10" s:pid="Y"/>
  </g>
  <g s:type="inputExt" transform="translate(12,117.5)" s:width="30" s:height="20" id="cell_S">
    <text x="15" y="-4" class="nodelabel cell_S" s:attribute="ref">S</text>
    <s:alias val="$_inputExt_"/>
    <path d="M0,0 L0,20 L15,20 L30,10 L15,0 Z" class="cell_S"/>
    <g s:x="28" s:y="10" s:pid="Y"/>
  </g>
  <g s:type="inputExt" transform="translate(84,32)" s:width="30" s:height="20" id="cell_R">
    <text x="15" y="-4" class="nodelabel cell_R" s:attribute="ref">R</text>
    <s:alias val="$_inputExt_"/>
    <path d="M0,0 L0,20 L15,20 L30,10 L15,0 Z" class="cell_R"/>
    <g s:x="28" s:y="10" s:pid="Y"/>
  </g>
  <g s:type="outputExt" transform="translate(917,125)" s:width="30" s:height="20" id="cell_q">
    <text x="15" y="-4" class="nodelabel cell_q" s:attribute="ref">q</text>
    <s:alias val="$_outputExt_"/>
    <path d="M30,0 L30,20 L15,20 L0,10 L15,0 Z" class="cell_q"/>
    <g s:x="0" s:y="10" s:pid="A"/>
  </g>
  <line x1="763" x2="892" y1="135" y2="135" class="net_6"/>
  <line x1="892" x2="892" y1="135" y2="12" class="net_6"/>
  <line x1="892" x2="52" y1="12" y2="12" class="net_6"/>
  <line x1="52" x2="52" y1="12" y2="107.5" class="net_6"/>
  <circle cx="892" cy="135" r="2" style="fill:#000" class="net_6"/>
  <line x1="52" x2="84" y1="107.5" y2="107.5" class="net_6"/>
  <line x1="763" x2="917" y1="135" y2="135" class="net_6"/>
  <line x1="40" x2="84" y1="127.5" y2="127.5" class="net_4"/>
  <line x1="112" x2="374" y1="42" y2="42" class="net_5"/>
  <line x1="374" x2="374" y1="42" y2="155" class="net_5"/>
  <line x1="374" x2="408" y1="155" y2="155" class="net_5"/>
  <line x1="115" x2="364" y1="107.5" y2="107.5" class="net_7"/>
  <line x1="364" x2="364" y1="107.5" y2="175" class="net_7"/>
  <line x1="364" x2="408" y1="175" y2="175" class="net_7"/>
  <line x1="112" x2="408" y1="195" y2="195" class="net_3"/>
  <line x1="436" x2="688" y1="89.5" y2="89.5" class="net_2"/>
  <line x1="688" x2="688" y1="89.5" y2="135" class="net_2"/>
  <line x1="688" x2="732" y1="135" y2="135" class="net_2"/>
  <line x1="439" x2="732" y1="155" y2="155" class="net_8"/>
</svg>
