<svg xmlns="http://www.w3.org/2000/svg" xmlns:xlink="http://www.w3.org/1999/xlink" xmlns:s="https://github.com/nturley/netlistsvg" width="1796" height="582.5">
  <style>svg {
    stroke:#000;
    fill:none;
  }
  text {
    fill:#000;
    stroke:none;
    font-size:10px;
    font-weight: bold;
    font-family: "Courier New", monospace;
  }
  .nodelabel {
    text-anchor: middle;
  }
  .inputPortLabel {
    text-anchor: end;
  }
  .splitjoinBody {
    fill:#000;
  }</style>
  <g s:type="generic" transform="translate(1494,22)" s:width="30" s:height="40" id="cell_$abc$155$auto$blifparse.cc:386:parse_blif$156">
    <text x="15" y="-4" class="nodelabel cell_$abc$155$auto$blifparse.cc:386:parse_blif$156" s:attribute="ref">sky130_fd_sc_hd__lpflow_isobufsrc_1</text>
    <rect width="30" height="40" s:generic="body" class="cell_$abc$155$auto$blifparse.cc:386:parse_blif$156"/>
    <g transform="translate(0,10)" s:x="0" s:y="10" s:pid="in0" id="port_$abc$155$auto$blifparse.cc:386:parse_blif$156~A">
      <text x="-3" y="-4" class="inputPortLabel cell_$abc$155$auto$blifparse.cc:386:parse_blif$156">A</text>
    </g>
    <g transform="translate(0,30)" s:x="0" s:y="10" s:pid="in0" id="port_$abc$155$auto$blifparse.cc:386:parse_blif$156~SLEEP">
      <text x="-3" y="-4" class="inputPortLabel cell_$abc$155$auto$blifparse.cc:386:parse_blif$156">SLEEP</text>
    </g>
    <g transform="translate(30,10)" s:x="30" s:y="10" s:pid="out0" id="port_$abc$155$auto$blifparse.cc:386:parse_blif$156~X">
      <text x="5" y="-4" style="fill:#000; stroke:none" class="cell_$abc$155$auto$blifparse.cc:386:parse_blif$156">X</text>
    </g>
  </g>
  <g s:type="generic" transform="translate(1158,146.5)" s:width="30" s:height="40" id="cell_$abc$155$auto$blifparse.cc:386:parse_blif$157">
    <text x="15" y="-4" class="nodelabel cell_$abc$155$auto$blifparse.cc:386:parse_blif$157" s:attribute="ref">sky130_fd_sc_hd__o21ai_0</text>
    <rect width="30" height="60" s:generic="body" class="cell_$abc$155$auto$blifparse.cc:386:parse_blif$157"/>
    <g transform="translate(0,10)" s:x="0" s:y="10" s:pid="in0" id="port_$abc$155$auto$blifparse.cc:386:parse_blif$157~A1">
      <text x="-3" y="-4" class="inputPortLabel cell_$abc$155$auto$blifparse.cc:386:parse_blif$157">A1</text>
    </g>
    <g transform="translate(0,30)" s:x="0" s:y="10" s:pid="in0" id="port_$abc$155$auto$blifparse.cc:386:parse_blif$157~A2">
      <text x="-3" y="-4" class="inputPortLabel cell_$abc$155$auto$blifparse.cc:386:parse_blif$157">A2</text>
    </g>
    <g transform="translate(0,50)" s:x="0" s:y="10" s:pid="in0" id="port_$abc$155$auto$blifparse.cc:386:parse_blif$157~B1">
      <text x="-3" y="-4" class="inputPortLabel cell_$abc$155$auto$blifparse.cc:386:parse_blif$157">B1</text>
    </g>
    <g transform="translate(30,10)" s:x="30" s:y="10" s:pid="out0" id="port_$abc$155$auto$blifparse.cc:386:parse_blif$157~Y">
      <text x="5" y="-4" style="fill:#000; stroke:none" class="cell_$abc$155$auto$blifparse.cc:386:parse_blif$157">Y</text>
    </g>
  </g>
  <g s:type="generic" transform="translate(1494,95)" s:width="30" s:height="40" id="cell_$abc$155$auto$blifparse.cc:386:parse_blif$158">
    <text x="15" y="-4" class="nodelabel cell_$abc$155$auto$blifparse.cc:386:parse_blif$158" s:attribute="ref">sky130_fd_sc_hd__a21oi_1</text>
    <rect width="30" height="60" s:generic="body" class="cell_$abc$155$auto$blifparse.cc:386:parse_blif$158"/>
    <g transform="translate(0,10)" s:x="0" s:y="10" s:pid="in0" id="port_$abc$155$auto$blifparse.cc:386:parse_blif$158~A1">
      <text x="-3" y="-4" class="inputPortLabel cell_$abc$155$auto$blifparse.cc:386:parse_blif$158">A1</text>
    </g>
    <g transform="translate(0,30)" s:x="0" s:y="10" s:pid="in0" id="port_$abc$155$auto$blifparse.cc:386:parse_blif$158~A2">
      <text x="-3" y="-4" class="inputPortLabel cell_$abc$155$auto$blifparse.cc:386:parse_blif$158">A2</text>
    </g>
    <g transform="translate(0,50)" s:x="0" s:y="10" s:pid="in0" id="port_$abc$155$auto$blifparse.cc:386:parse_blif$158~B1">
      <text x="-3" y="-4" class="inputPortLabel cell_$abc$155$auto$blifparse.cc:386:parse_blif$158">B1</text>
    </g>
    <g transform="translate(30,10)" s:x="30" s:y="10" s:pid="out0" id="port_$abc$155$auto$blifparse.cc:386:parse_blif$158~Y">
      <text x="5" y="-4" style="fill:#000; stroke:none" class="cell_$abc$155$auto$blifparse.cc:386:parse_blif$158">Y</text>
    </g>
  </g>
  <g s:type="generic" transform="translate(303,423)" s:width="30" s:height="40" id="cell_$abc$155$auto$blifparse.cc:386:parse_blif$159">
    <text x="15" y="-4" class="nodelabel cell_$abc$155$auto$blifparse.cc:386:parse_blif$159" s:attribute="ref">sky130_fd_sc_hd__nand3_1</text>
    <rect width="30" height="60" s:generic="body" class="cell_$abc$155$auto$blifparse.cc:386:parse_blif$159"/>
    <g transform="translate(0,10)" s:x="0" s:y="10" s:pid="in0" id="port_$abc$155$auto$blifparse.cc:386:parse_blif$159~A">
      <text x="-3" y="-4" class="inputPortLabel cell_$abc$155$auto$blifparse.cc:386:parse_blif$159">A</text>
    </g>
    <g transform="translate(0,30)" s:x="0" s:y="10" s:pid="in0" id="port_$abc$155$auto$blifparse.cc:386:parse_blif$159~B">
      <text x="-3" y="-4" class="inputPortLabel cell_$abc$155$auto$blifparse.cc:386:parse_blif$159">B</text>
    </g>
    <g transform="translate(0,50)" s:x="0" s:y="10" s:pid="in0" id="port_$abc$155$auto$blifparse.cc:386:parse_blif$159~C">
      <text x="-3" y="-4" class="inputPortLabel cell_$abc$155$auto$blifparse.cc:386:parse_blif$159">C</text>
    </g>
    <g transform="translate(30,10)" s:x="30" s:y="10" s:pid="out0" id="port_$abc$155$auto$blifparse.cc:386:parse_blif$159~Y">
      <text x="5" y="-4" style="fill:#000; stroke:none" class="cell_$abc$155$auto$blifparse.cc:386:parse_blif$159">Y</text>
    </g>
  </g>
  <g s:type="generic" transform="translate(303,307)" s:width="30" s:height="40" id="cell_$abc$155$auto$blifparse.cc:386:parse_blif$160">
    <text x="15" y="-4" class="nodelabel cell_$abc$155$auto$blifparse.cc:386:parse_blif$160" s:attribute="ref">sky130_fd_sc_hd__a21oi_1</text>
    <rect width="30" height="60" s:generic="body" class="cell_$abc$155$auto$blifparse.cc:386:parse_blif$160"/>
    <g transform="translate(0,10)" s:x="0" s:y="10" s:pid="in0" id="port_$abc$155$auto$blifparse.cc:386:parse_blif$160~A1">
      <text x="-3" y="-4" class="inputPortLabel cell_$abc$155$auto$blifparse.cc:386:parse_blif$160">A1</text>
    </g>
    <g transform="translate(0,30)" s:x="0" s:y="10" s:pid="in0" id="port_$abc$155$auto$blifparse.cc:386:parse_blif$160~A2">
      <text x="-3" y="-4" class="inputPortLabel cell_$abc$155$auto$blifparse.cc:386:parse_blif$160">A2</text>
    </g>
    <g transform="translate(0,50)" s:x="0" s:y="10" s:pid="in0" id="port_$abc$155$auto$blifparse.cc:386:parse_blif$160~B1">
      <text x="-3" y="-4" class="inputPortLabel cell_$abc$155$auto$blifparse.cc:386:parse_blif$160">B1</text>
    </g>
    <g transform="translate(30,10)" s:x="30" s:y="10" s:pid="out0" id="port_$abc$155$auto$blifparse.cc:386:parse_blif$160~Y">
      <text x="5" y="-4" style="fill:#000; stroke:none" class="cell_$abc$155$auto$blifparse.cc:386:parse_blif$160">Y</text>
    </g>
  </g>
  <g s:type="generic" transform="translate(642,307)" s:width="30" s:height="40" id="cell_$abc$155$auto$blifparse.cc:386:parse_blif$161">
    <text x="15" y="-4" class="nodelabel cell_$abc$155$auto$blifparse.cc:386:parse_blif$161" s:attribute="ref">sky130_fd_sc_hd__and3b_1</text>
    <rect width="30" height="60" s:generic="body" class="cell_$abc$155$auto$blifparse.cc:386:parse_blif$161"/>
    <g transform="translate(0,10)" s:x="0" s:y="10" s:pid="in0" id="port_$abc$155$auto$blifparse.cc:386:parse_blif$161~A_N">
      <text x="-3" y="-4" class="inputPortLabel cell_$abc$155$auto$blifparse.cc:386:parse_blif$161">A_N</text>
    </g>
    <g transform="translate(0,30)" s:x="0" s:y="10" s:pid="in0" id="port_$abc$155$auto$blifparse.cc:386:parse_blif$161~B">
      <text x="-3" y="-4" class="inputPortLabel cell_$abc$155$auto$blifparse.cc:386:parse_blif$161">B</text>
    </g>
    <g transform="translate(0,50)" s:x="0" s:y="10" s:pid="in0" id="port_$abc$155$auto$blifparse.cc:386:parse_blif$161~C">
      <text x="-3" y="-4" class="inputPortLabel cell_$abc$155$auto$blifparse.cc:386:parse_blif$161">C</text>
    </g>
    <g transform="translate(30,10)" s:x="30" s:y="10" s:pid="out0" id="port_$abc$155$auto$blifparse.cc:386:parse_blif$161~X">
      <text x="5" y="-4" style="fill:#000; stroke:none" class="cell_$abc$155$auto$blifparse.cc:386:parse_blif$161">X</text>
    </g>
  </g>
  <g s:type="generic" transform="translate(1158,505.5)" s:width="30" s:height="40" id="cell_$abc$155$auto$blifparse.cc:386:parse_blif$162">
    <text x="15" y="-4" class="nodelabel cell_$abc$155$auto$blifparse.cc:386:parse_blif$162" s:attribute="ref">sky130_fd_sc_hd__xnor2_1</text>
    <rect width="30" height="40" s:generic="body" class="cell_$abc$155$auto$blifparse.cc:386:parse_blif$162"/>
    <g transform="translate(0,10)" s:x="0" s:y="10" s:pid="in0" id="port_$abc$155$auto$blifparse.cc:386:parse_blif$162~A">
      <text x="-3" y="-4" class="inputPortLabel cell_$abc$155$auto$blifparse.cc:386:parse_blif$162">A</text>
    </g>
    <g transform="translate(0,30)" s:x="0" s:y="10" s:pid="in0" id="port_$abc$155$auto$blifparse.cc:386:parse_blif$162~B">
      <text x="-3" y="-4" class="inputPortLabel cell_$abc$155$auto$blifparse.cc:386:parse_blif$162">B</text>
    </g>
    <g transform="translate(30,10)" s:x="30" s:y="10" s:pid="out0" id="port_$abc$155$auto$blifparse.cc:386:parse_blif$162~Y">
      <text x="5" y="-4" style="fill:#000; stroke:none" class="cell_$abc$155$auto$blifparse.cc:386:parse_blif$162">Y</text>
    </g>
  </g>
  <g s:type="generic" transform="translate(1494,485.5)" s:width="30" s:height="40" id="cell_$abc$155$auto$blifparse.cc:386:parse_blif$163">
    <text x="15" y="-4" class="nodelabel cell_$abc$155$auto$blifparse.cc:386:parse_blif$163" s:attribute="ref">sky130_fd_sc_hd__and2_0</text>
    <rect width="30" height="40" s:generic="body" class="cell_$abc$155$auto$blifparse.cc:386:parse_blif$163"/>
    <g transform="translate(0,10)" s:x="0" s:y="10" s:pid="in0" id="port_$abc$155$auto$blifparse.cc:386:parse_blif$163~A">
      <text x="-3" y="-4" class="inputPortLabel cell_$abc$155$auto$blifparse.cc:386:parse_blif$163">A</text>
    </g>
    <g transform="translate(0,30)" s:x="0" s:y="10" s:pid="in0" id="port_$abc$155$auto$blifparse.cc:386:parse_blif$163~B">
      <text x="-3" y="-4" class="inputPortLabel cell_$abc$155$auto$blifparse.cc:386:parse_blif$163">B</text>
    </g>
    <g transform="translate(30,10)" s:x="30" s:y="10" s:pid="out0" id="port_$abc$155$auto$blifparse.cc:386:parse_blif$163~X">
      <text x="5" y="-4" style="fill:#000; stroke:none" class="cell_$abc$155$auto$blifparse.cc:386:parse_blif$163">X</text>
    </g>
  </g>
  <g s:type="generic" transform="translate(96,307)" s:width="30" s:height="40" id="cell_$auto$ff.cc:266:slice$86">
    <text x="15" y="-4" class="nodelabel cell_$auto$ff.cc:266:slice$86" s:attribute="ref">sky130_fd_sc_hd__dfxtp_1</text>
    <rect width="30" height="40" s:generic="body" class="cell_$auto$ff.cc:266:slice$86"/>
    <g transform="translate(0,10)" s:x="0" s:y="10" s:pid="in0" id="port_$auto$ff.cc:266:slice$86~CLK">
      <text x="-3" y="-4" class="inputPortLabel cell_$auto$ff.cc:266:slice$86">CLK</text>
    </g>
    <g transform="translate(0,30)" s:x="0" s:y="10" s:pid="in0" id="port_$auto$ff.cc:266:slice$86~D">
      <text x="-3" y="-4" class="inputPortLabel cell_$auto$ff.cc:266:slice$86">D</text>
    </g>
    <g transform="translate(30,10)" s:x="30" s:y="10" s:pid="out0" id="port_$auto$ff.cc:266:slice$86~Q">
      <text x="5" y="-4" style="fill:#000; stroke:none" class="cell_$auto$ff.cc:266:slice$86">Q</text>
    </g>
  </g>
  <g s:type="generic" transform="translate(96,463)" s:width="30" s:height="40" id="cell_$auto$ff.cc:266:slice$87">
    <text x="15" y="-4" class="nodelabel cell_$auto$ff.cc:266:slice$87" s:attribute="ref">sky130_fd_sc_hd__dfxtp_1</text>
    <rect width="30" height="40" s:generic="body" class="cell_$auto$ff.cc:266:slice$87"/>
    <g transform="translate(0,10)" s:x="0" s:y="10" s:pid="in0" id="port_$auto$ff.cc:266:slice$87~CLK">
      <text x="-3" y="-4" class="inputPortLabel cell_$auto$ff.cc:266:slice$87">CLK</text>
    </g>
    <g transform="translate(0,30)" s:x="0" s:y="10" s:pid="in0" id="port_$auto$ff.cc:266:slice$87~D">
      <text x="-3" y="-4" class="inputPortLabel cell_$auto$ff.cc:266:slice$87">D</text>
    </g>
    <g transform="translate(30,10)" s:x="30" s:y="10" s:pid="out0" id="port_$auto$ff.cc:266:slice$87~Q">
      <text x="5" y="-4" style="fill:#000; stroke:none" class="cell_$auto$ff.cc:266:slice$87">Q</text>
    </g>
  </g>
  <g s:type="generic" transform="translate(966,369.5)" s:width="30" s:height="40" id="cell_$auto$ff.cc:266:slice$88">
    <text x="15" y="-4" class="nodelabel cell_$auto$ff.cc:266:slice$88" s:attribute="ref">sky130_fd_sc_hd__dfxtp_1</text>
    <rect width="30" height="40" s:generic="body" class="cell_$auto$ff.cc:266:slice$88"/>
    <g transform="translate(0,10)" s:x="0" s:y="10" s:pid="in0" id="port_$auto$ff.cc:266:slice$88~CLK">
      <text x="-3" y="-4" class="inputPortLabel cell_$auto$ff.cc:266:slice$88">CLK</text>
    </g>
    <g transform="translate(0,30)" s:x="0" s:y="10" s:pid="in0" id="port_$auto$ff.cc:266:slice$88~D">
      <text x="-3" y="-4" class="inputPortLabel cell_$auto$ff.cc:266:slice$88">D</text>
    </g>
    <g transform="translate(30,10)" s:x="30" s:y="10" s:pid="out0" id="port_$auto$ff.cc:266:slice$88~Q">
      <text x="5" y="-4" style="fill:#000; stroke:none" class="cell_$auto$ff.cc:266:slice$88">Q</text>
    </g>
  </g>
  <g s:type="generic" transform="translate(966,505.5)" s:width="30" s:height="40" id="cell_$auto$ff.cc:266:slice$89">
    <text x="15" y="-4" class="nodelabel cell_$auto$ff.cc:266:slice$89" s:attribute="ref">sky130_fd_sc_hd__dfxtp_1</text>
    <rect width="30" height="40" s:generic="body" class="cell_$auto$ff.cc:266:slice$89"/>
    <g transform="translate(0,10)" s:x="0" s:y="10" s:pid="in0" id="port_$auto$ff.cc:266:slice$89~CLK">
      <text x="-3" y="-4" class="inputPortLabel cell_$auto$ff.cc:266:slice$89">CLK</text>
    </g>
    <g transform="translate(0,30)" s:x="0" s:y="10" s:pid="in0" id="port_$auto$ff.cc:266:slice$89~D">
      <text x="-3" y="-4" class="inputPortLabel cell_$auto$ff.cc:266:slice$89">D</text>
    </g>
    <g transform="translate(30,10)" s:x="30" s:y="10" s:pid="out0" id="port_$auto$ff.cc:266:slice$89~Q">
      <text x="5" y="-4" style="fill:#000; stroke:none" class="cell_$auto$ff.cc:266:slice$89">Q</text>
    </g>
  </g>
  <g s:type="inputExt" transform="translate(12,506)" s:width="30" s:height="20" id="cell_clk">
    <text x="15" y="-4" class="nodelabel cell_clk" s:attribute="ref">clk</text>
    <s:alias val="$_inputExt_"/>
    <path d="M0,0 L0,20 L15,20 L30,10 L15,0 Z" class="cell_clk"/>
    <g s:x="28" s:y="10" s:pid="Y"/>
  </g>
  <g s:type="inputExt" transform="translate(303,245)" s:width="30" s:height="20" id="cell_rst_n">
    <text x="15" y="-4" class="nodelabel cell_rst_n" s:attribute="ref">rst_n</text>
    <s:alias val="$_inputExt_"/>
    <path d="M0,0 L0,20 L15,20 L30,10 L15,0 Z" class="cell_rst_n"/>
    <g s:x="28" s:y="10" s:pid="Y"/>
  </g>
  <g s:type="outputExt" transform="translate(1494,255)" s:width="30" s:height="20" id="cell_counter">
    <text x="15" y="-4" class="nodelabel cell_counter" s:attribute="ref">counter</text>
    <s:alias val="$_outputExt_"/>
    <path d="M30,0 L30,20 L15,20 L0,10 L15,0 Z" class="cell_counter"/>
    <g s:x="0" s:y="10" s:pid="A"/>
  </g>
  <g s:type="join" transform="translate(1221.25,244.5)" s:width="4" s:height="40" id="cell_$join$,4,5,6,7,">
    <rect width="5" height="80" class="splitjoinBody" s:generic="body"/>
    <s:alias val="$_join_"/>
    <g s:x="5" s:y="20" s:pid="out"/>
    <g transform="translate(0,10)" s:x="0" s:y="10" s:pid="in0">
      <text x="-3" y="-4" class="inputPortLabel">0</text>
    </g>
    <g transform="translate(0,30)" s:x="0" s:y="10" s:pid="in0">
      <text x="-3" y="-4" class="inputPortLabel">1</text>
    </g>
    <g transform="translate(0,50)" s:x="0" s:y="10" s:pid="in0">
      <text x="-3" y="-4" class="inputPortLabel">2</text>
    </g>
    <g transform="translate(0,70)" s:x="0" s:y="10" s:pid="in0">
      <text x="-3" y="-4" class="inputPortLabel">3</text>
    </g>
  </g>
  <line x1="331" x2="613" y1="255" y2="255" class="net_3"/>
  <line x1="613" x2="613" y1="255" y2="41.5" class="net_3"/>
  <line x1="613" x2="1438" y1="41.5" y2="41.5" class="net_3"/>
  <line x1="1438" x2="1438" y1="41.5" y2="32.5" class="net_3"/>
  <circle cx="613" cy="255" r="2" style="fill:#000" class="net_3"/>
  <line x1="1438" x2="1494" y1="32.5" y2="32.5" class="net_3"/>
  <line x1="331" x2="613" y1="255" y2="255" class="net_3"/>
  <line x1="613" x2="613" y1="255" y2="213" class="net_3"/>
  <line x1="613" x2="1120" y1="213" y2="213" class="net_3"/>
  <line x1="1120" x2="1120" y1="213" y2="197" class="net_3"/>
  <circle cx="613" cy="213" r="2" style="fill:#000" class="net_3"/>
  <line x1="1120" x2="1158" y1="197" y2="197" class="net_3"/>
  <line x1="331" x2="613" y1="255" y2="255" class="net_3"/>
  <line x1="613" x2="613" y1="255" y2="337.5" class="net_3"/>
  <circle cx="613" cy="337.5" r="2" style="fill:#000" class="net_3"/>
  <line x1="613" x2="642" y1="337.5" y2="337.5" class="net_3"/>
  <line x1="331" x2="613" y1="255" y2="255" class="net_3"/>
  <line x1="613" x2="613" y1="255" y2="422.5" class="net_3"/>
  <line x1="613" x2="1438" y1="422.5" y2="422.5" class="net_3"/>
  <line x1="1438" x2="1438" y1="422.5" y2="496" class="net_3"/>
  <line x1="1438" x2="1494" y1="496" y2="496" class="net_3"/>
  <line x1="127" x2="250" y1="317.5" y2="317.5" class="net_4"/>
  <line x1="250" x2="250" y1="317.5" y2="52.5" class="net_4"/>
  <circle cx="250" cy="317.5" r="2" style="fill:#000" class="net_4"/>
  <line x1="250" x2="1494" y1="52.5" y2="52.5" class="net_4"/>
  <line x1="127" x2="250" y1="317.5" y2="317.5" class="net_4"/>
  <line x1="250" x2="250" y1="317.5" y2="166" class="net_4"/>
  <line x1="250" x2="1120" y1="166" y2="166" class="net_4"/>
  <line x1="1120" x2="1120" y1="166" y2="157" class="net_4"/>
  <circle cx="250" cy="166" r="2" style="fill:#000" class="net_4"/>
  <line x1="1120" x2="1158" y1="157" y2="157" class="net_4"/>
  <line x1="127" x2="250" y1="317.5" y2="317.5" class="net_4"/>
  <line x1="250" x2="250" y1="317.5" y2="114.5" class="net_4"/>
  <line x1="250" x2="1438" y1="114.5" y2="114.5" class="net_4"/>
  <line x1="1438" x2="1438" y1="114.5" y2="105.5" class="net_4"/>
  <circle cx="250" cy="114.5" r="2" style="fill:#000" class="net_4"/>
  <line x1="1438" x2="1494" y1="105.5" y2="105.5" class="net_4"/>
  <line x1="127" x2="250" y1="317.5" y2="317.5" class="net_4"/>
  <line x1="250" x2="250" y1="317.5" y2="433.5" class="net_4"/>
  <line x1="250" x2="303" y1="433.5" y2="433.5" class="net_4"/>
  <line x1="127" x2="303" y1="317.5" y2="317.5" class="net_4"/>
  <line x1="127" x2="250" y1="317.5" y2="317.5" class="net_4"/>
  <line x1="250" x2="250" y1="317.5" y2="224" class="net_4"/>
  <line x1="250" x2="1120" y1="224" y2="224" class="net_4"/>
  <line x1="1120" x2="1120" y1="224" y2="255" class="net_4"/>
  <circle cx="250" cy="224" r="2" style="fill:#000" class="net_4"/>
  <line x1="1120" x2="1221.25" y1="255" y2="255" class="net_4"/>
  <line x1="127" x2="260" y1="473.5" y2="473.5" class="net_5"/>
  <line x1="260" x2="260" y1="473.5" y2="177" class="net_5"/>
  <circle cx="260" cy="473.5" r="2" style="fill:#000" class="net_5"/>
  <circle cx="260" cy="177" r="2" style="fill:#000" class="net_5"/>
  <line x1="260" x2="1158" y1="177" y2="177" class="net_5"/>
  <line x1="127" x2="260" y1="473.5" y2="473.5" class="net_5"/>
  <line x1="260" x2="260" y1="473.5" y2="125.5" class="net_5"/>
  <line x1="260" x2="1494" y1="125.5" y2="125.5" class="net_5"/>
  <line x1="127" x2="303" y1="473.5" y2="473.5" class="net_5"/>
  <line x1="127" x2="260" y1="473.5" y2="473.5" class="net_5"/>
  <line x1="260" x2="260" y1="473.5" y2="337.5" class="net_5"/>
  <circle cx="260" cy="337.5" r="2" style="fill:#000" class="net_5"/>
  <line x1="260" x2="303" y1="337.5" y2="337.5" class="net_5"/>
  <line x1="127" x2="260" y1="473.5" y2="473.5" class="net_5"/>
  <line x1="260" x2="260" y1="473.5" y2="275" class="net_5"/>
  <circle cx="260" cy="275" r="2" style="fill:#000" class="net_5"/>
  <line x1="260" x2="1221.25" y1="275" y2="275" class="net_5"/>
  <line x1="1189" x2="1438" y1="157" y2="157" class="net_9"/>
  <line x1="1438" x2="1438" y1="157" y2="145.5" class="net_9"/>
  <line x1="1438" x2="1494" y1="145.5" y2="145.5" class="net_9"/>
  <line x1="997" x2="1120" y1="380" y2="380" class="net_6"/>
  <line x1="1120" x2="1120" y1="380" y2="286" class="net_6"/>
  <line x1="1120" x2="270" y1="286" y2="286" class="net_6"/>
  <line x1="270" x2="270" y1="286" y2="453.5" class="net_6"/>
  <line x1="270" x2="303" y1="453.5" y2="453.5" class="net_6"/>
  <line x1="997" x2="1120" y1="380" y2="380" class="net_6"/>
  <line x1="1120" x2="1120" y1="380" y2="286" class="net_6"/>
  <line x1="1120" x2="583" y1="286" y2="286" class="net_6"/>
  <line x1="583" x2="583" y1="286" y2="380" class="net_6"/>
  <line x1="583" x2="280" y1="380" y2="380" class="net_6"/>
  <line x1="280" x2="280" y1="380" y2="357.5" class="net_6"/>
  <circle cx="583" cy="286" r="2" style="fill:#000" class="net_6"/>
  <line x1="280" x2="303" y1="357.5" y2="357.5" class="net_6"/>
  <line x1="997" x2="1120" y1="380" y2="380" class="net_6"/>
  <line x1="1120" x2="1120" y1="380" y2="295" class="net_6"/>
  <circle cx="1120" cy="295" r="2" style="fill:#000" class="net_6"/>
  <line x1="1120" x2="1221.25" y1="295" y2="295" class="net_6"/>
  <line x1="334" x2="642" y1="317.5" y2="317.5" class="net_12"/>
  <line x1="334" x2="593" y1="433.5" y2="433.5" class="net_11"/>
  <line x1="593" x2="593" y1="433.5" y2="357.5" class="net_11"/>
  <circle cx="593" cy="433.5" r="2" style="fill:#000" class="net_11"/>
  <line x1="593" x2="642" y1="357.5" y2="357.5" class="net_11"/>
  <line x1="334" x2="1120" y1="433.5" y2="433.5" class="net_11"/>
  <line x1="1120" x2="1120" y1="433.5" y2="536" class="net_11"/>
  <line x1="1120" x2="1158" y1="536" y2="536" class="net_11"/>
  <line x1="997" x2="1158" y1="516" y2="516" class="net_7"/>
  <line x1="997" x2="1130" y1="516" y2="516" class="net_7"/>
  <line x1="1130" x2="1130" y1="516" y2="485.5" class="net_7"/>
  <line x1="1130" x2="1221.75" y1="485.5" y2="485.5" class="net_7"/>
  <circle cx="1130" cy="516" r="2" style="fill:#000" class="net_7"/>
  <line x1="1221.75" x2="1221.75" y1="485.5" y2="315.5" class="net_7"/>
  <line x1="1189" x2="1494" y1="516" y2="516" class="net_14"/>
  <line x1="40" x2="52" y1="516" y2="516" class="net_2"/>
  <line x1="52" x2="52" y1="516" y2="317.5" class="net_2"/>
  <circle cx="52" cy="516" r="2" style="fill:#000" class="net_2"/>
  <line x1="52" x2="96" y1="317.5" y2="317.5" class="net_2"/>
  <line x1="40" x2="52" y1="516" y2="516" class="net_2"/>
  <line x1="52" x2="52" y1="516" y2="473.5" class="net_2"/>
  <circle cx="52" cy="473.5" r="2" style="fill:#000" class="net_2"/>
  <line x1="52" x2="96" y1="473.5" y2="473.5" class="net_2"/>
  <line x1="40" x2="603" y1="516" y2="516" class="net_2"/>
  <line x1="603" x2="603" y1="516" y2="380" class="net_2"/>
  <circle cx="603" cy="516" r="2" style="fill:#000" class="net_2"/>
  <line x1="603" x2="966" y1="380" y2="380" class="net_2"/>
  <line x1="40" x2="966" y1="516" y2="516" class="net_2"/>
  <line x1="1525" x2="1774" y1="32.5" y2="32.5" class="net_8"/>
  <line x1="1774" x2="1774" y1="32.5" y2="75" class="net_8"/>
  <line x1="1774" x2="62" y1="75" y2="75" class="net_8"/>
  <line x1="62" x2="62" y1="75" y2="337.5" class="net_8"/>
  <line x1="62" x2="96" y1="337.5" y2="337.5" class="net_8"/>
  <line x1="1525" x2="1784" y1="105.5" y2="105.5" class="net_10"/>
  <line x1="1784" x2="1784" y1="105.5" y2="558.5" class="net_10"/>
  <line x1="1784" x2="62" y1="558.5" y2="558.5" class="net_10"/>
  <line x1="62" x2="62" y1="558.5" y2="493.5" class="net_10"/>
  <line x1="62" x2="96" y1="493.5" y2="493.5" class="net_10"/>
  <line x1="673" x2="922" y1="317.5" y2="317.5" class="net_13"/>
  <line x1="922" x2="922" y1="317.5" y2="400" class="net_13"/>
  <line x1="922" x2="966" y1="400" y2="400" class="net_13"/>
  <line x1="1525" x2="1774" y1="496" y2="496" class="net_15"/>
  <line x1="1774" x2="1774" y1="496" y2="569.5" class="net_15"/>
  <line x1="1774" x2="922" y1="569.5" y2="569.5" class="net_15"/>
  <line x1="922" x2="922" y1="569.5" y2="536" class="net_15"/>
  <line x1="922" x2="966" y1="536" y2="536" class="net_15"/>
  <line x1="1227.25" x2="1494" y1="265" y2="265" class="net_4,5,6,7"/>
</svg>
